<svg xmlns="http://www.w3.org/2000/svg" width="105.445" height="56.003" viewBox="0 0 105.445 56.003" fill="none">
  <path d="M 29.061 25.931 L 29.061 24.535 C 29.061 22.314 28.265 20.319 26.673 18.548 C 25.081 16.747 23.129 15.847 20.816 15.847 L 19.96 15.847 C 19.539 15.907 19.254 15.937 19.104 15.937 C 17.001 15.937 15.004 17.137 13.111 19.538 C 11.249 21.939 10.318 24.505 10.318 27.236 L 10.318 27.822 C 10.318 28.782 10.889 29.262 12.03 29.262 C 12.48 29.352 12.721 29.397 12.751 29.397 L 13.787 29.442 L 14.057 29.442 L 14.373 29.397 L 23.069 28.902 L 24.691 28.722 C 27.604 28.722 29.061 27.792 29.061 25.931 Z M 10.318 37.861 C 10.318 41.282 11.609 44.148 14.193 46.459 C 16.776 48.77 20.05 49.926 24.015 49.926 C 25.607 49.926 27.049 49.701 28.34 49.251 C 29.662 48.77 31.089 48.2 32.62 47.54 C 34.182 46.88 35.159 46.549 35.549 46.549 C 36.751 46.549 37.351 47.195 37.351 48.485 C 37.351 50.226 35.129 52.087 30.683 54.068 C 27.799 55.358 24.706 56.003 21.402 56.003 L 20.41 56.003 C 14.763 56.003 10.078 54.293 6.353 50.871 C 4.34 49.011 2.778 46.64 1.667 43.758 C 0.556 40.847 0 37.726 0 34.394 L 0.045 33.359 L 0.045 32.324 C 0.045 29.442 0.706 26.606 2.028 23.815 C 3.379 21.024 4.986 18.728 6.848 16.927 C 10.783 13.145 15.454 11.24 20.861 11.21 C 29.031 11.21 34.468 14.391 37.171 20.754 C 38.012 22.765 38.433 24.61 38.433 26.291 L 38.433 27.191 C 38.433 29.262 37.577 30.658 35.865 31.378 C 34.152 32.068 30.112 32.639 23.744 33.089 C 17.377 33.539 13.922 33.839 13.382 33.989 C 11.339 34.499 10.318 35.79 10.318 37.861 Z" fill="currentColor" fill-rule="nonzero"></path>
  <path d="M 68.222 22.735 L 68.222 21.519 C 68.222 20.439 67.771 19.523 66.87 18.773 C 65.999 17.993 64.798 17.602 63.266 17.602 L 61.914 17.602 C 60.382 17.602 58.565 18.218 56.462 19.448 C 54.36 20.679 52.557 22.464 51.056 24.805 C 47.451 30.358 45.649 35.925 45.649 41.507 L 45.649 41.958 C 45.649 44.359 46.054 46.339 46.865 47.9 C 47.706 49.431 48.923 50.196 50.515 50.196 L 51.326 50.196 C 52.888 50.196 54.81 49.281 57.093 47.45 C 59.376 45.619 61.223 43.503 62.635 41.102 C 64.077 38.671 65.368 35.55 66.51 31.738 C 67.651 27.927 68.222 24.925 68.222 22.735 Z M 69.574 15.216 L 75.341 14.496 C 76.242 14.496 76.692 15.111 76.692 16.342 C 76.692 17.542 75.731 21.984 73.809 29.667 C 71.886 37.351 70.925 42.243 70.925 44.344 C 70.925 46.444 71.901 47.495 73.854 47.495 L 75.521 47.315 C 76.722 47.315 77.323 47.6 77.323 48.17 L 77.323 48.62 C 77.323 49.731 76.257 50.901 74.124 52.132 C 72.022 53.332 70.204 53.933 68.672 53.933 C 67.141 53.933 66.089 53.572 65.519 52.852 C 64.948 52.102 64.407 50.766 63.896 48.845 L 63.536 47.045 C 63.386 46.294 63.251 45.919 63.131 45.919 C 62.86 45.919 60.893 47.36 57.228 50.241 C 53.594 53.122 50.35 54.563 47.496 54.563 L 46.685 54.563 C 44.162 54.563 42.15 53.587 40.648 51.637 C 39.176 49.656 38.44 47.09 38.44 43.938 L 38.44 42.993 C 38.44 40.142 39.071 36.915 40.332 33.314 C 42.795 26.321 47.091 20.874 53.218 16.972 C 56.282 15.021 59.241 14.046 62.094 14.046 L 62.95 14.046 C 63.791 14.046 64.858 14.241 66.149 14.631 C 67.471 15.021 68.612 15.216 69.574 15.216 Z" fill="currentColor" fill-rule="nonzero"></path>
  <path d="M 97.425 49.251 L 104.274 48.215 C 105.055 48.215 105.445 48.83 105.445 50.061 C 105.445 51.261 104.289 52.507 101.976 53.798 C 99.663 55.088 97.23 55.733 94.677 55.733 L 93.776 55.733 C 91.763 55.733 89.946 55.208 88.324 54.158 C 86.702 53.107 85.516 51.817 84.765 50.286 C 83.473 47.615 82.827 42.558 82.827 35.115 C 82.827 27.642 82.557 22.975 82.016 21.114 C 81.506 19.253 80.83 17.978 79.989 17.287 C 78.427 16.027 77.646 15.336 77.646 15.216 C 77.646 14.436 78.051 13.776 78.862 13.236 C 80.935 11.855 82.061 11.075 82.241 10.895 C 82.452 10.684 83.608 8.223 85.711 3.511 C 86.762 1.17 87.949 0 89.27 0 C 90.622 0 91.523 0.48 91.974 1.441 C 92.094 1.681 92.349 2.986 92.739 5.357 C 93.16 7.728 93.746 9.259 94.497 9.949 C 95.248 10.609 96.915 11.255 99.498 11.885 C 102.081 12.485 103.373 13.356 103.373 14.496 C 103.373 15.637 101.946 16.492 99.092 17.062 C 96.239 17.632 94.512 18.368 93.911 19.268 C 92.86 20.799 92.334 25.121 92.334 32.233 C 92.334 39.346 92.664 43.833 93.325 45.694 C 94.166 48.065 95.533 49.251 97.425 49.251 Z" fill="currentColor" fill-rule="nonzero"></path>
</svg>