<svg xmlns="http://www.w3.org/2000/svg" width="100.747" height="67.348" viewBox="0 0 100.747 67.348" fill="none">
  <path d="M 0.225 64.962 C 0.225 64.332 0.901 63.522 2.253 62.531 C 3.635 61.541 4.566 59.995 5.046 57.894 C 5.527 55.763 5.767 47.72 5.767 33.764 C 5.767 19.808 5.602 11.9 5.272 10.039 C 4.971 8.178 4.205 6.843 2.974 6.033 C 0.991 4.742 0 3.947 0 3.647 L 0 3.106 C 0 2.596 0.436 2.146 1.307 1.756 C 4.01 0.585 7.614 0 12.12 0 L 13.021 0 C 14.553 0 15.439 1.035 15.679 3.106 C 15.709 3.376 15.725 5.642 15.725 9.904 L 15.725 19.583 L 15.679 21.429 L 15.679 24.265 L 15.634 26.111 C 15.634 26.111 15.634 30.868 15.634 40.382 C 15.634 49.266 15.77 54.773 16.04 56.904 C 16.34 59.005 17.016 60.535 18.067 61.496 C 18.188 61.586 18.818 61.976 19.96 62.666 C 21.101 63.357 21.672 64.062 21.672 64.782 C 21.672 65.833 19.81 66.358 16.085 66.358 L 14.238 66.448 L 12.39 66.448 L 5.001 66.583 L 4.055 66.583 C 1.502 66.583 0.225 66.043 0.225 64.962 Z" fill="currentColor" fill-rule="nonzero"></path>
  <path d="M 37.112 8.734 C 37.112 10.054 36.541 11.285 35.4 12.425 C 34.288 13.536 33.177 14.091 32.065 14.091 C 31.825 14.151 31.63 14.181 31.48 14.181 L 30.488 14.271 C 28.987 14.271 27.635 13.776 26.433 12.785 C 25.262 11.795 24.676 10.519 24.676 8.959 L 24.676 8.148 C 24.676 6.588 25.292 5.282 26.524 4.232 C 27.785 3.151 29.227 2.611 30.849 2.611 L 31.074 2.611 L 32.606 2.791 C 33.537 2.791 34.498 3.301 35.49 4.322 C 36.511 5.312 37.022 6.318 37.022 7.338 L 37.112 7.743 L 37.112 8.734 Z M 22.784 28.812 C 21.222 28.062 20.441 27.356 20.441 26.696 C 20.441 26.036 20.756 25.511 21.387 25.121 C 23.58 23.8 27.049 23.14 31.795 23.14 L 33.102 23.14 C 34.724 23.14 35.64 23.89 35.85 25.391 C 35.97 26.201 36.03 31.663 36.03 41.777 C 36.03 51.862 36.241 57.654 36.661 59.155 C 37.082 60.625 38.088 61.766 39.68 62.576 C 41.272 63.357 42.068 64.152 42.068 64.962 C 42.068 66.103 38.343 66.673 30.894 66.673 L 29.542 66.718 L 24.045 66.718 C 21.853 66.718 20.756 66.178 20.756 65.097 C 20.756 64.197 21.417 63.326 22.739 62.486 C 24.09 61.646 25.022 60.715 25.532 59.695 C 26.103 58.585 26.388 55.988 26.388 51.907 L 26.433 50.466 L 26.433 49.071 L 26.478 46.955 L 26.478 45.559 L 26.524 44.163 C 26.524 37.05 26.283 32.909 25.803 31.738 C 25.352 30.538 24.346 29.562 22.784 28.812 Z" fill="currentColor" fill-rule="nonzero"></path>
  <path d="M 70.439 46.324 C 72.812 48.575 73.998 51.427 73.998 54.878 C 73.998 58.299 72.586 61.241 69.763 63.702 C 66.939 66.133 63.034 67.348 58.048 67.348 L 56.832 67.348 C 51.155 67.348 46.829 66.643 43.856 65.232 C 42.204 64.452 41.378 62.711 41.378 60.01 L 41.378 58.885 C 41.378 55.433 42.023 53.707 43.315 53.707 C 44.396 53.707 45.673 54.728 47.145 56.769 C 48.617 58.78 49.848 60.13 50.839 60.82 C 52.762 62.141 55.014 62.801 57.598 62.801 C 60.211 62.801 62.133 62.261 63.365 61.181 C 64.596 60.07 65.212 58.615 65.212 56.814 C 65.212 55.013 64.161 53.347 62.058 51.817 C 60.947 51.006 58.349 49.731 54.264 47.99 C 50.209 46.249 47.175 44.434 45.162 42.543 C 43.15 40.622 42.143 37.921 42.143 34.439 C 42.143 30.958 43.6 28.137 46.514 25.976 C 49.428 23.785 53.017 22.689 57.282 22.689 L 58.499 22.689 C 64.086 22.689 68.006 23.35 70.258 24.67 C 71.43 25.361 72.016 27.281 72.016 30.433 C 72.016 33.584 71.265 35.16 69.763 35.16 C 68.922 35.16 67.765 34.229 66.293 32.369 C 64.852 30.478 63.53 29.142 62.329 28.362 C 61.127 27.552 59.46 27.146 57.327 27.146 C 55.225 27.146 53.558 27.627 52.326 28.587 C 51.095 29.547 50.479 30.943 50.479 32.774 C 50.479 34.574 51.605 36.195 53.858 37.636 C 54.429 38.026 56.922 39.181 61.337 41.102 C 65.753 43.023 68.787 44.764 70.439 46.324 Z" fill="currentColor" fill-rule="nonzero"></path>
  <path d="M 92.727 60.595 L 99.575 59.56 C 100.356 59.56 100.747 60.175 100.747 61.406 C 100.747 62.606 99.59 63.852 97.278 65.142 C 94.965 66.433 92.532 67.078 89.978 67.078 L 89.077 67.078 C 87.065 67.078 85.248 66.553 83.626 65.502 C 82.004 64.452 80.817 63.161 80.066 61.631 C 78.775 58.96 78.129 53.903 78.129 46.459 C 78.129 38.986 77.858 34.319 77.318 32.459 C 76.807 30.598 76.131 29.322 75.29 28.632 C 73.728 27.371 72.947 26.681 72.947 26.561 C 72.947 25.781 73.353 25.121 74.164 24.58 C 76.236 23.2 77.363 22.419 77.543 22.239 C 77.753 22.029 78.91 19.568 81.012 14.856 C 82.064 12.515 83.25 11.345 84.572 11.345 C 85.923 11.345 86.825 11.825 87.275 12.785 C 87.395 13.025 87.651 14.331 88.041 16.702 C 88.462 19.073 89.047 20.604 89.798 21.294 C 90.549 21.954 92.216 22.599 94.799 23.23 C 97.383 23.83 98.674 24.7 98.674 25.841 C 98.674 26.981 97.247 27.837 94.394 28.407 C 91.54 28.977 89.813 29.712 89.213 30.613 C 88.161 32.143 87.636 36.465 87.636 43.578 C 87.636 50.691 87.966 55.178 88.627 57.039 C 89.468 59.41 90.835 60.595 92.727 60.595 Z" fill="currentColor" fill-rule="nonzero"></path>
</svg>